<svg width="155" height="186" viewBox="0 0 155 186" fill="none" xmlns="http://www.w3.org/2000/svg">
<path fill-rule="evenodd" clip-rule="evenodd" d="M78.3989 136.784C79.7103 137.476 82.497 139.035 78.5629 144.922C74.6287 150.808 63.318 152.02 62.0066 152.02C56.925 152.194 50.696 152.194 43.8112 149.77C23.8126 142.844 23.6487 120.162 30.0417 116.526C36.2708 112.89 39.0575 126.914 48.0732 135.399C52.0074 139.208 56.7611 140.593 60.6953 141.459C66.2687 142.497 76.9236 135.918 78.3989 136.784Z" fill="#FFAB19" stroke="#001026" stroke-width="1.2" stroke-miterlimit="10" stroke-linecap="round" stroke-linejoin="round"/>
<path fill-rule="evenodd" clip-rule="evenodd" d="M37.7461 122.759C40.3688 127.434 45.4505 134.014 45.4505 134.014C45.4505 134.014 39.3853 132.455 35.9429 135.399C33.1562 137.65 33.8119 141.459 34.1398 142.671C32.0088 140.42 29.386 137.303 27.7468 131.243C26.1076 125.183 27.7468 117.911 31.0253 116.872C34.3037 116.18 35.1233 118.777 37.7461 122.759Z" fill="white"/>
<path d="M88.299 107.956C89.4457 100.996 91.4245 102.289 91.4245 102.289C92.5193 102.929 92.8901 104.455 94.1499 105.507C97.9294 108.665 106.699 115.191 109.396 113.066C115.501 107.719 122.797 102.232 128.914 107.998C137.321 114.334 124.551 121.473 118.09 126.771C113.123 129.872 108.395 133.451 99.274 126.945C91.9381 120.828 88.9205 121.073 88.9205 121.073C84.7601 118.641 87.1524 114.915 88.299 107.956Z" fill="#FAA51D" stroke="#414042" stroke-width="2.7012" stroke-miterlimit="10" stroke-linecap="round" stroke-linejoin="round"/>
<path d="M105.554 116.101L109.396 113.066" stroke="#414042" stroke-width="2.7012" stroke-miterlimit="10" stroke-linecap="round" stroke-linejoin="round"/>
<path d="M95.4856 139.403C95.4856 139.403 92.9264 149.96 95.2976 166.493C96.3456 173.607 109.365 164.695 109.126 178.776C109.073 182.718 91.4145 183.388 87.468 182.209C83.8067 181.084 82.8158 179.805 83.1579 175.987C84.5377 162.122 76.5815 146.545 76.5815 146.545" fill="#FAA51D"/>
<path d="M95.4856 139.403C95.4856 139.403 92.9264 149.96 95.2976 166.493C96.3456 173.607 109.365 164.695 109.126 178.776C109.073 182.718 91.4145 183.388 87.468 182.209C83.8067 181.084 82.8158 179.805 83.1579 175.987C84.5377 162.122 76.5815 146.545 76.5815 146.545" stroke="#414042" stroke-width="2.7012" stroke-miterlimit="10" stroke-linecap="round" stroke-linejoin="round"/>
<path d="M94.104 170.22C96.8161 169.57 99.3622 169.705 99.3622 169.705L94.104 170.22Z" fill="#FAA51D"/>
<path d="M94.104 170.22C96.8161 169.57 99.3622 169.705 99.3622 169.705" stroke="#414042" stroke-width="2.7012" stroke-miterlimit="10" stroke-linecap="round" stroke-linejoin="round"/>
<path d="M95.8336 118.703C96.567 131.322 100.817 149.856 78.3302 151.156C55.8431 152.457 56.7543 135.383 56.0168 122.695C55.2793 110.006 62.8096 106.124 75.6693 105.38C88.5291 104.637 95.0961 106.015 95.8336 118.703Z" fill="#FAA51D" stroke="#414042" stroke-width="2.7012" stroke-miterlimit="10" stroke-linecap="round" stroke-linejoin="round"/>
<path d="M91.2364 124.526C91.701 132.517 94.1464 144.263 81.8488 144.974C69.5512 145.686 70.048 134.825 69.5835 126.833C69.1189 118.842 73.2049 116.355 80.1618 115.952C87.2634 115.612 90.7719 116.534 91.2364 124.526Z" fill="white"/>
<path d="M77.0276 151.794C77.0276 151.794 75.2272 169.342 76.3161 177.157C76.8213 180.996 75.4719 183.254 71.5071 184.187C67.3315 185.132 53.0164 186.312 52.5326 181.627C50.9986 167.367 62.1893 175.512 62.8278 168.301C64.3256 151.615 58.7333 141.528 58.7333 141.528" fill="#FAA51D"/>
<path d="M77.0276 151.794C77.0276 151.794 75.2272 169.342 76.3161 177.157C76.8213 180.996 75.4719 183.254 71.5071 184.187C67.3315 185.132 53.0164 186.312 52.5326 181.627C50.9986 167.367 62.1893 175.512 62.8278 168.301C64.3256 151.615 58.7333 141.528 58.7333 141.528" stroke="#414042" stroke-width="2.7012" stroke-miterlimit="10" stroke-linecap="round" stroke-linejoin="round"/>
<path d="M58.53 171.996C58.53 171.996 61.5273 171.401 64.2424 172.017L58.53 171.996Z" fill="#FAA51D"/>
<path d="M58.53 171.996C58.53 171.996 61.5273 171.401 64.2424 172.017" stroke="#414042" stroke-width="2.7012" stroke-miterlimit="10" stroke-linecap="round" stroke-linejoin="round"/>
<path d="M84.7854 14.2198L98.4411 0.948486L103.72 22.1546C103.72 22.1546 115.546 30.9319 119.065 36.9005C125.049 47.012 125.189 55.2276 125.189 55.2276C125.189 55.2276 138.212 59.0896 140.464 69.5522C142.787 80.0148 134.551 99.8868 100.06 106.698C65.5689 113.579 37.6944 104.24 24.6722 83.2449C11.65 62.3197 32.2743 37.392 31.0777 38.7964L26.9951 4.10833L50.9277 19.6969C50.9277 19.6969 59.1634 16.6073 67.8918 16.186C71.1297 16.0455 77.0425 16.3264 79.8581 16.6073L84.7854 14.2198Z" fill="#FAA51D" stroke="#414042" stroke-width="2.7012" stroke-miterlimit="10" stroke-linecap="round" stroke-linejoin="round"/>
<path d="M124.485 56.0703C124.485 56.0703 137.085 59.0898 139.338 69.5524C142.083 80.015 132.791 99.606 100.13 105.575C92.7395 107.049 86.0524 108.313 75.6347 108.313C59.4449 108.383 41.9178 98.3421 43.1848 77.3466C43.8887 65.269 59.2338 66.1819 59.2338 66.1819L72.6079 62.6709C72.6079 62.6709 86.1228 65.8308 94.1473 64.0753C102.172 62.3198 102.172 56.0703 102.172 56.0703L118.925 51.155L123.5 54.9468L124.485 56.0703Z" fill="white"/>
<path d="M23.6867 74.7485C23.6867 74.7485 16.9996 75.5912 13.5505 75.8018C10.1014 76.0125 2.56966 75.3103 2.56966 75.3103" stroke="#414042" stroke-width="2.7012" stroke-miterlimit="10" stroke-linecap="round" stroke-linejoin="round"/>
<path d="M154.049 57.7554C154.049 57.7554 150.671 60.7046 145.673 62.46C141.449 63.9346 133.073 65.2688 133.073 65.2688" stroke="#414042" stroke-width="2.7012" stroke-miterlimit="10" stroke-linecap="round" stroke-linejoin="round"/>
<path d="M0.950691 56.9832C0.950691 56.9832 5.10371 57.8258 12.7058 61.1963C19.6041 64.2859 23.9683 67.516 23.9683 67.516" stroke="#414042" stroke-width="2.7012" stroke-miterlimit="10" stroke-linecap="round" stroke-linejoin="round"/>
<path d="M152.642 78.8914C152.642 78.8914 149.192 79.1722 144.124 78.6807C138.915 78.1892 133.918 76.1528 133.918 76.1528" stroke="#414042" stroke-width="2.7012" stroke-miterlimit="10" stroke-linecap="round" stroke-linejoin="round"/>
<path d="M79.2245 16.6775C84.4334 17.9414 86.4043 19.3458 86.4043 19.3458" stroke="#414042" stroke-width="2.7012" stroke-miterlimit="10" stroke-linecap="round" stroke-linejoin="round"/>
<path d="M46.5635 16.8882L56.4181 23.6994" stroke="#414042" stroke-width="2.7012" stroke-miterlimit="10" stroke-linecap="round" stroke-linejoin="round"/>
<path d="M115.053 37.1814C120.403 45.397 120.614 54.8064 115.475 58.1066C110.337 61.4771 101.82 57.4747 96.3998 49.2591C90.9797 41.0435 90.8389 31.6341 95.9774 28.3339C101.116 24.9634 109.633 28.9658 115.053 37.1814Z" fill="white" stroke="#414042" stroke-width="2.7012" stroke-miterlimit="10" stroke-linecap="round" stroke-linejoin="round"/>
<path d="M107.24 46.5204C107.803 48.4163 106.818 50.3825 105.058 50.874C103.298 51.3655 101.397 50.242 100.905 48.3461C100.342 46.4502 101.397 44.4841 103.157 43.9926C104.847 43.501 106.747 44.6245 107.24 46.5204Z" fill="#404041"/>
<path d="M70.9889 43.15C76.3386 51.3656 75.7754 61.2664 69.7219 65.1987C63.6683 69.1309 54.3768 65.6902 48.9568 57.4746C43.5367 49.259 44.0999 39.3581 50.2238 35.4259C56.2774 31.4234 65.5689 34.9344 70.9889 43.15Z" fill="white" stroke="#414042" stroke-width="2.7012" stroke-miterlimit="10" stroke-linecap="round" stroke-linejoin="round"/>
<path d="M62.7533 52.9806C62.7533 54.9467 61.2751 56.5617 59.4449 56.5617C57.6148 56.5617 56.1366 54.9467 56.1366 52.9806C56.1366 51.0144 57.6148 49.3994 59.4449 49.3994C61.2751 49.3994 62.7533 51.0144 62.7533 52.9806Z" fill="#404041"/>
<path d="M91.754 61.8984C94.9216 61.5473 99.4265 59.0897 99.9897 62.6708C100.06 64.2859 97.0333 70.4651 93.4434 70.6758C89.7127 70.8864 82.9552 66.0413 83.1664 63.2326C83.448 60.3536 89.0088 62.2495 91.754 61.8984Z" fill="#414042" stroke="#414042" stroke-width="2.7012" stroke-miterlimit="10" stroke-linecap="round" stroke-linejoin="round"/>
<path d="M37.9055 37.673C37.9055 37.673 39.8061 27.1401 49.9423 27.1401L37.9055 37.673Z" fill="#FAA51D"/>
<path d="M37.9055 37.673C37.9055 37.673 39.8061 27.1401 49.9423 27.1401" stroke="#414042" stroke-width="2.7012" stroke-miterlimit="10" stroke-linecap="round" stroke-linejoin="round"/>
<path d="M90.135 84.3684C82.8849 87.4581 83.8703 96.4461 87.8825 97.3589C85.3485 100.449 77.1128 99.7464 73.3822 98.342C59.7969 93.2862 68.0325 80.366 68.0325 80.366C68.0325 80.366 78.1687 88.3007 97.9483 82.8236" fill="#B74E6C"/>
<path d="M90.135 84.3684C82.8849 87.4581 83.8703 96.4461 87.8825 97.3589C85.3485 100.449 77.1128 99.7464 73.3822 98.342C59.7969 93.2862 68.0325 80.366 68.0325 80.366C68.0325 80.366 78.1687 88.3007 97.9483 82.8236" stroke="#231F20" stroke-width="2.7012" stroke-miterlimit="10" stroke-linecap="round" stroke-linejoin="round"/>
<path d="M69.1588 96.0247C69.1588 96.0247 72.8894 93.7777 77.324 94.3394C80.9843 94.831 85.5597 98.9036 85.5597 98.9036C85.5597 98.9036 76.1978 101.151 69.1588 96.0247Z" fill="#FF6680" stroke="#231F20" stroke-width="2.7012" stroke-miterlimit="10" stroke-linecap="round" stroke-linejoin="round"/>
<path d="M59.5153 120.18L55.7846 133.17L38.2575 134.434L41.777 127.693L59.5153 120.18Z" fill="#FAA51D"/>
<path d="M41.777 127.693C43.1144 126.359 46.7747 122.778 50.083 119.407C54.1657 115.265 62.894 109.366 64.9353 119.407" fill="#FAA51D"/>
<path d="M41.777 127.693C43.1144 126.359 46.7747 122.778 50.083 119.407C54.1657 115.265 62.894 109.366 64.9353 119.407" stroke="#414042" stroke-width="2.7012" stroke-miterlimit="10" stroke-linecap="round" stroke-linejoin="round"/>
<path d="M55.4327 132.609C57.5444 134.505 63.1052 137.594 65.9208 142.158C69.1588 147.355 66.6247 154.517 60.7823 156.272C55.5031 157.817 50.7165 152.059 41.8474 141.526C39.3133 138.507 38.539 134.224 40.158 130.572C40.158 130.502 40.2284 130.502 40.2284 130.432C41.777 126.991 44.2406 124.042 47.197 121.584L53.7433 116.177" fill="#FAA51D"/>
<path d="M55.4327 132.609C57.5444 134.505 63.1052 137.594 65.9208 142.158C69.1588 147.355 66.6247 154.517 60.7823 156.272C55.5031 157.817 50.7165 152.059 41.8474 141.526C39.3133 138.507 38.539 134.224 40.158 130.572C40.158 130.502 40.2284 130.502 40.2284 130.432C41.777 126.991 44.2406 124.042 47.197 121.584L53.7433 116.177" stroke="#414042" stroke-width="2.7012" stroke-miterlimit="10" stroke-linecap="round" stroke-linejoin="round"/>
</svg>
